<mxfile host="app.diagrams.net" modified="2023-08-24T10:27:43.708Z" agent="Mozilla/5.0 (Windows NT 10.0; Win64; x64) AppleWebKit/537.36 (KHTML, like Gecko) Chrome/116.0.0.0 Safari/537.36" etag="gvvhTLkoTn6PkKd3mWew" version="21.6.8" type="github">
  <diagram name="Page-1" id="xgM9Nzjq5ztXO2ASeh7i">
    <mxGraphModel dx="1195" dy="652" grid="1" gridSize="10" guides="1" tooltips="1" connect="1" arrows="1" fold="1" page="1" pageScale="1" pageWidth="827" pageHeight="1169" math="0" shadow="0">
      <root>
        <mxCell id="0" />
        <mxCell id="1" parent="0" />
        <mxCell id="LoA2GBlaYymYr8rpxEEp-1" value="Страница авторизации" style="rounded=0;whiteSpace=wrap;html=1;fillColor=#f8cecc;strokeColor=#b85450;" parent="1" vertex="1">
          <mxGeometry x="80" y="120" width="170" height="40" as="geometry" />
        </mxCell>
        <mxCell id="BQbBoTITe2UEGrSNe0Jl-1" value="Главная страница" style="rounded=0;whiteSpace=wrap;html=1;fillColor=#fff2cc;strokeColor=#d6b656;" vertex="1" parent="1">
          <mxGeometry x="324" y="120" width="180" height="40" as="geometry" />
        </mxCell>
        <mxCell id="BQbBoTITe2UEGrSNe0Jl-3" value="Страница профиля" style="rounded=0;whiteSpace=wrap;html=1;" vertex="1" parent="1">
          <mxGeometry x="24" y="200" width="170" height="40" as="geometry" />
        </mxCell>
        <mxCell id="BQbBoTITe2UEGrSNe0Jl-4" value="Страница поиска и списка продуктов" style="rounded=0;whiteSpace=wrap;html=1;" vertex="1" parent="1">
          <mxGeometry x="234" y="200" width="170" height="40" as="geometry" />
        </mxCell>
        <mxCell id="BQbBoTITe2UEGrSNe0Jl-5" value="Страница со списком продуктов" style="rounded=0;whiteSpace=wrap;html=1;" vertex="1" parent="1">
          <mxGeometry x="434" y="200" width="170" height="40" as="geometry" />
        </mxCell>
        <mxCell id="BQbBoTITe2UEGrSNe0Jl-6" value="Страница корзины" style="rounded=0;whiteSpace=wrap;html=1;" vertex="1" parent="1">
          <mxGeometry x="634" y="200" width="170" height="40" as="geometry" />
        </mxCell>
        <mxCell id="BQbBoTITe2UEGrSNe0Jl-7" value="Страница настройки профиля" style="rounded=0;whiteSpace=wrap;html=1;" vertex="1" parent="1">
          <mxGeometry x="24" y="260" width="176" height="40" as="geometry" />
        </mxCell>
        <mxCell id="BQbBoTITe2UEGrSNe0Jl-8" value="Страница оплаты и оформления заказа" style="rounded=0;whiteSpace=wrap;html=1;" vertex="1" parent="1">
          <mxGeometry x="634" y="260" width="170" height="40" as="geometry" />
        </mxCell>
        <mxCell id="BQbBoTITe2UEGrSNe0Jl-9" value="Страница сведений о продукте" style="rounded=0;whiteSpace=wrap;html=1;" vertex="1" parent="1">
          <mxGeometry x="329" y="320" width="170" height="40" as="geometry" />
        </mxCell>
        <mxCell id="BQbBoTITe2UEGrSNe0Jl-10" value="Страница витрины магазина" style="rounded=0;whiteSpace=wrap;html=1;fillColor=#d5e8d4;strokeColor=#82b366;" vertex="1" parent="1">
          <mxGeometry x="329" y="260" width="170" height="40" as="geometry" />
        </mxCell>
        <mxCell id="BQbBoTITe2UEGrSNe0Jl-11" value="страница политики конфиденциальности условий обслуживания" style="rounded=0;whiteSpace=wrap;html=1;" vertex="1" parent="1">
          <mxGeometry x="24" y="410" width="176" height="80" as="geometry" />
        </mxCell>
        <mxCell id="BQbBoTITe2UEGrSNe0Jl-12" value="Страница часто задаваемых вопросов" style="rounded=0;whiteSpace=wrap;html=1;" vertex="1" parent="1">
          <mxGeometry x="220" y="410" width="176" height="40" as="geometry" />
        </mxCell>
        <mxCell id="BQbBoTITe2UEGrSNe0Jl-13" value="Контакты и страница Справочного центра" style="rounded=0;whiteSpace=wrap;html=1;" vertex="1" parent="1">
          <mxGeometry x="414" y="410" width="176" height="40" as="geometry" />
        </mxCell>
        <mxCell id="BQbBoTITe2UEGrSNe0Jl-14" value="Страница о нас" style="rounded=0;whiteSpace=wrap;html=1;" vertex="1" parent="1">
          <mxGeometry x="628" y="410" width="176" height="40" as="geometry" />
        </mxCell>
      </root>
    </mxGraphModel>
  </diagram>
</mxfile>
